<svg width="18" height="18" viewBox="0 0 18 18" fill="none" xmlns="http://www.w3.org/2000/svg">
<path fill-rule="evenodd" clip-rule="evenodd" d="M10.8455 11.1985C11.7295 10.3145 12.1714 9.25315 12.1714 8.01431C12.1714 6.77547 11.7311 5.71576 10.8506 4.83518C9.96999 3.9546 8.91028 3.51431 7.67144 3.51431C6.4326 3.51431 5.37289 3.9546 4.49231 4.83518C3.61173 5.71576 3.17144 6.77547 3.17144 8.01431C3.17144 9.25315 3.61173 10.3129 4.49231 11.1934C5.37289 12.074 6.4326 12.5143 7.67144 12.5143C8.91028 12.5143 9.96831 12.0757 10.8455 11.1985ZM17.3143 16.3715C17.3143 16.7197 17.187 17.021 16.9326 17.2755C16.6781 17.5299 16.3768 17.6572 16.0285 17.6572C15.6669 17.6572 15.3656 17.5299 15.1245 17.2755L11.6792 13.8402C10.4806 14.6706 9.14462 15.0857 7.6714 15.0857C6.71381 15.0857 5.79808 14.8999 4.92419 14.5283C4.05031 14.1566 3.29696 13.6544 2.66415 13.0216C2.03134 12.3888 1.5291 11.6354 1.15745 10.7615C0.785801 9.88764 0.599976 8.9719 0.599976 8.01431C0.599976 7.05672 0.785801 6.14099 1.15745 5.2671C1.5291 4.39322 2.03134 3.63987 2.66415 3.00706C3.29696 2.37425 4.05031 1.87202 4.92419 1.50036C5.79808 1.12871 6.71381 0.942886 7.6714 0.942886C8.62899 0.942886 9.54472 1.12871 10.4186 1.50036C11.2925 1.87202 12.0458 2.37425 12.6787 3.00706C13.3115 3.63987 13.8137 4.39322 14.1853 5.2671C14.557 6.14099 14.7428 7.05672 14.7428 8.01431C14.7428 9.48753 14.3276 10.8235 13.4973 12.0221L16.9426 15.4674C17.1904 15.7152 17.3143 16.0165 17.3143 16.3715L17.3143 16.3715Z" fill="#7030A0"/>
</svg>
